<?xml version="1.0" encoding="UTF-8"?>
<svg width="700pt" height="700pt" version="1.1" viewBox="0 0 700 700" xmlns="http://www.w3.org/2000/svg">
 <path d="m382.07 53.156c-34.68 0-63.328 28.676-63.328 63.355 0 34.68 28.648 63.191 63.328 63.191 34.68 0 63.164-28.512 63.164-63.191 0-34.68-28.484-63.355-63.164-63.355zm-146.15 59.527c-13.32 0.33984-26.551 5.5508-36.613 15.613-20.773 20.773-20.746 54.914 0.027344 75.688 20.773 20.773 54.996 20.883 75.77 0.10938 20.773-20.773 20.773-55.105 0-75.879-10.711-10.711-25.004-15.891-39.184-15.531zm255.53 40.742c-3.1719 0.074219-6.332 1.3281-8.7227 3.7188-4.9375 4.9375-4.9102 13.082 0.027344 18.02s13.055 4.9102 17.992-0.027343 4.9648-13.055 0.027344-17.992c-2.5469-2.5469-5.9453-3.7969-9.3242-3.7188zm-307.02 91.328c-26.641 0-48.535 22.031-48.535 48.672s21.895 48.508 48.535 48.508 48.672-21.867 48.672-48.508-22.031-48.672-48.672-48.672zm360.01 28.957c-10.766 0-19.605 8.8945-19.605 19.66s8.8398 19.605 19.605 19.605 19.66-8.8398 19.66-19.605-8.8945-19.66-19.66-19.66zm-307.21 104.37c-10.977 0-21.969 4.1406-30.242 12.414-16.547 16.547-16.465 43.828 0.085937 60.375 16.547 16.547 43.746 16.547 60.293 0s16.629-43.828 0.085937-60.375c-8.2773-8.2734-19.242-12.414-30.219-12.414zm253.91 17.828c-6.1719 0.16016-12.289 2.582-16.953 7.2461-9.625 9.625-9.625 25.43 0 35.055s25.484 9.6836 35.109 0.054687c9.625-9.625 9.625-25.539 0-35.164-4.9648-4.9648-11.586-7.3594-18.156-7.1914zm-127.48 43.941c-17.973 0.46484-32.676 15.449-32.676 33.523 0 18.359 15.191 33.469 33.551 33.469s33.414-15.109 33.414-33.469-15.055-33.523-33.414-33.523c-0.28516 0-0.58984-0.007812-0.875 0z" fill-rule="evenodd"/>
</svg>
